<svg width="175" height="48" viewBox="0 0 175 48" fill="none" xmlns="http://www.w3.org/2000/svg">
<g opacity="0.84">
<path d="M0 33V15.138H18.304V18.674H4.498V22.184H16.692V25.668H4.498V29.438H18.512V33H0Z" fill="white"/>
<path d="M21.3781 33V14.176H25.4341V33H21.3781Z" fill="white"/>
<path d="M33.7267 33.312C32.8947 33.312 32.1233 33.2427 31.4127 33.104C30.702 32.9827 30.078 32.7747 29.5407 32.48C29.0033 32.168 28.5787 31.752 28.2667 31.232C27.972 30.712 27.8247 30.0534 27.8247 29.256C27.8247 28.164 28.128 27.306 28.7347 26.682C29.3413 26.0407 30.1907 25.5814 31.2827 25.304C32.392 25.0267 33.6833 24.8534 35.1567 24.784C36.6473 24.6974 38.268 24.654 40.0187 24.654V24.16C40.0187 23.588 39.88 23.1374 39.6027 22.808C39.3253 22.4787 38.9007 22.2447 38.3287 22.106C37.774 21.95 37.046 21.872 36.1447 21.872C35.4687 21.872 34.8447 21.924 34.2727 22.028C33.718 22.1147 33.276 22.262 32.9467 22.47C32.6173 22.6607 32.4527 22.912 32.4527 23.224V23.484H28.3707C28.3533 23.4147 28.336 23.354 28.3187 23.302C28.3187 23.2327 28.3187 23.1547 28.3187 23.068C28.3187 22.2534 28.622 21.5427 29.2287 20.936C29.8353 20.312 30.7367 19.8354 31.9327 19.506C33.146 19.1594 34.6453 18.986 36.4307 18.986C38.0947 18.986 39.49 19.1334 40.6167 19.428C41.7607 19.7227 42.6273 20.208 43.2167 20.884C43.806 21.56 44.1007 22.4614 44.1007 23.588V29.334C44.1007 29.646 44.1613 29.8974 44.2827 30.088C44.4213 30.2614 44.6467 30.348 44.9587 30.348H46.3107V32.844C46.1027 32.9307 45.756 33.026 45.2707 33.13C44.7853 33.2514 44.248 33.312 43.6587 33.312C42.8613 33.312 42.2287 33.2167 41.7607 33.026C41.31 32.8527 40.9807 32.61 40.7727 32.298C40.5647 31.9687 40.4173 31.6134 40.3307 31.232H40.1227C39.6373 31.6654 39.0567 32.038 38.3807 32.35C37.722 32.662 37.0027 32.896 36.2227 33.052C35.4427 33.2254 34.6107 33.312 33.7267 33.312ZM34.7927 30.426C35.278 30.426 35.8153 30.374 36.4047 30.27C37.0113 30.1487 37.592 29.984 38.1467 29.776C38.7013 29.5507 39.152 29.2734 39.4987 28.944C39.8453 28.6147 40.0187 28.216 40.0187 27.748V27.02C38.164 27.02 36.6387 27.0894 35.4427 27.228C34.2467 27.3667 33.354 27.5834 32.7647 27.878C32.1753 28.1727 31.8807 28.5887 31.8807 29.126C31.8807 29.49 32.0193 29.7674 32.2967 29.958C32.5913 30.1314 32.964 30.2527 33.4147 30.322C33.8653 30.3914 34.3247 30.426 34.7927 30.426Z" fill="white"/>
<path d="M54.6282 33.312C53.6056 33.312 52.6262 33.2254 51.6902 33.052C50.7542 32.896 49.9136 32.6534 49.1682 32.324C48.4402 31.9947 47.8596 31.5614 47.4262 31.024C46.9929 30.4867 46.7762 29.854 46.7762 29.126C46.7762 29.0394 46.7762 28.9614 46.7762 28.892C46.7936 28.8227 46.8109 28.7534 46.8282 28.684H50.9882C50.9882 28.7187 50.9796 28.762 50.9622 28.814C50.9622 28.866 50.9622 28.9094 50.9622 28.944C50.9622 29.3427 51.1356 29.6634 51.4822 29.906C51.8289 30.1487 52.2796 30.3307 52.8342 30.452C53.4062 30.556 54.0129 30.608 54.6542 30.608C55.2609 30.608 55.8502 30.5734 56.4222 30.504C57.0116 30.4347 57.4969 30.3047 57.8782 30.114C58.2596 29.906 58.4502 29.594 58.4502 29.178C58.4502 28.762 58.2249 28.4587 57.7742 28.268C57.3236 28.0774 56.6909 27.9387 55.8762 27.852C55.0789 27.748 54.1429 27.618 53.0682 27.462C52.2536 27.3407 51.4909 27.1847 50.7802 26.994C50.0869 26.8034 49.4716 26.5607 48.9342 26.266C48.4142 25.954 48.0069 25.5554 47.7122 25.07C47.4176 24.5847 47.2702 23.9867 47.2702 23.276C47.2702 22.5134 47.4522 21.8634 47.8162 21.326C48.1802 20.7714 48.6916 20.3207 49.3502 19.974C50.0262 19.6274 50.8322 19.376 51.7682 19.22C52.7042 19.064 53.7356 18.986 54.8622 18.986C55.8502 18.986 56.7776 19.064 57.6442 19.22C58.5282 19.376 59.2996 19.6187 59.9582 19.948C60.6169 20.2774 61.1369 20.6847 61.5182 21.17C61.8996 21.6554 62.0902 22.2187 62.0902 22.86C62.0902 22.9294 62.0902 22.9987 62.0902 23.068C62.0902 23.1374 62.0816 23.198 62.0642 23.25H57.9042V23.12C57.9042 22.7734 57.7569 22.496 57.4622 22.288C57.1676 22.08 56.7862 21.9327 56.3182 21.846C55.8502 21.742 55.3476 21.69 54.8102 21.69C54.6196 21.69 54.3336 21.6987 53.9522 21.716C53.5709 21.7334 53.1722 21.7767 52.7562 21.846C52.3576 21.9154 52.0196 22.028 51.7422 22.184C51.4649 22.34 51.3262 22.5654 51.3262 22.86C51.3262 23.224 51.5429 23.4927 51.9762 23.666C52.4096 23.8394 52.9729 23.9694 53.6662 24.056C54.3769 24.1427 55.1396 24.238 55.9542 24.342C56.8209 24.446 57.6442 24.576 58.4242 24.732C59.2216 24.888 59.9236 25.122 60.5302 25.434C61.1542 25.7287 61.6396 26.136 61.9862 26.656C62.3329 27.176 62.5062 27.852 62.5062 28.684C62.5062 29.5507 62.3242 30.2874 61.9602 30.894C61.5962 31.4834 61.0676 31.96 60.3742 32.324C59.6982 32.6707 58.8662 32.922 57.8782 33.078C56.9076 33.234 55.8242 33.312 54.6282 33.312Z" fill="white"/>
<path d="M70.9457 33.312C69.8883 33.312 69.013 33.182 68.3197 32.922C67.6437 32.6447 67.141 32.1854 66.8117 31.544C66.4823 30.8854 66.3177 29.9927 66.3177 28.866V22.262H63.6657V19.298H66.4477L67.2537 15.242H70.3737V19.298H74.1437V22.262H70.3737V28.346C70.3737 29.0047 70.495 29.5074 70.7377 29.854C70.9977 30.1834 71.5437 30.348 72.3757 30.348H74.1437V32.87C73.901 32.9567 73.5803 33.0347 73.1817 33.104C72.8003 33.1734 72.4017 33.2254 71.9857 33.26C71.587 33.2947 71.2403 33.312 70.9457 33.312Z" fill="white"/>
<path d="M76.5286 17.192V14.176H80.5846V17.192H76.5286ZM76.5286 33V19.298H80.5846V33H76.5286Z" fill="white"/>
<path d="M91.7631 33.312C89.9605 33.312 88.4091 33.052 87.1091 32.532C85.8265 31.9947 84.8385 31.1974 84.1451 30.14C83.4518 29.0654 83.1051 27.7307 83.1051 26.136C83.1051 24.5414 83.4518 23.2154 84.1451 22.158C84.8385 21.1007 85.8265 20.312 87.1091 19.792C88.4091 19.2547 89.9605 18.986 91.7631 18.986C92.8898 18.986 93.9471 19.1074 94.9351 19.35C95.9405 19.5754 96.8158 19.9307 97.5611 20.416C98.3065 20.884 98.8871 21.4734 99.3031 22.184C99.7191 22.8947 99.9271 23.7267 99.9271 24.68H95.8191C95.8191 24.0907 95.6371 23.5967 95.2731 23.198C94.9091 22.7994 94.4151 22.496 93.7911 22.288C93.1845 22.0627 92.5085 21.95 91.7631 21.95C90.8098 21.95 90.0038 22.106 89.3451 22.418C88.6865 22.73 88.1838 23.1807 87.8371 23.77C87.4905 24.342 87.3171 25.044 87.3171 25.876V26.396C87.3171 27.2107 87.4905 27.9127 87.8371 28.502C88.2011 29.0914 88.7211 29.5507 89.3971 29.88C90.0905 30.192 90.9311 30.348 91.9191 30.348C92.6471 30.348 93.3145 30.2354 93.9211 30.01C94.5451 29.7674 95.0391 29.438 95.4031 29.022C95.7845 28.606 95.9751 28.1294 95.9751 27.592H99.9271C99.9271 28.5627 99.7105 29.412 99.2771 30.14C98.8611 30.8507 98.2805 31.44 97.5351 31.908C96.8071 32.376 95.9405 32.7314 94.9351 32.974C93.9471 33.1994 92.8898 33.312 91.7631 33.312Z" fill="white"/>
<path d="M106.483 33L100.763 19.298H105.131L107.549 25.824C107.688 26.2054 107.818 26.578 107.939 26.942C108.061 27.306 108.165 27.644 108.251 27.956C108.355 28.2507 108.425 28.4934 108.459 28.684H108.667C108.719 28.4934 108.789 28.2507 108.875 27.956C108.979 27.6614 109.092 27.332 109.213 26.968C109.335 26.604 109.456 26.2314 109.577 25.85L111.761 19.298H116.285L118.469 25.85C118.521 25.9887 118.591 26.2314 118.677 26.578C118.781 26.9074 118.885 27.2627 118.989 27.644C119.111 28.008 119.223 28.3547 119.327 28.684H119.535C119.605 28.4067 119.691 28.0947 119.795 27.748C119.917 27.384 120.038 27.0374 120.159 26.708C120.281 26.3614 120.376 26.0754 120.445 25.85L122.837 19.298H126.919L121.199 33H117.169L115.037 26.76C114.916 26.3614 114.786 25.9627 114.647 25.564C114.509 25.148 114.379 24.758 114.257 24.394C114.136 24.03 114.041 23.7354 113.971 23.51H113.789C113.703 23.77 113.59 24.0907 113.451 24.472C113.33 24.836 113.209 25.226 113.087 25.642C112.966 26.0407 112.845 26.422 112.723 26.786L110.643 33H106.483Z" fill="white"/>
<path d="M133.388 33.312C132.556 33.312 131.785 33.2427 131.074 33.104C130.363 32.9827 129.739 32.7747 129.202 32.48C128.665 32.168 128.24 31.752 127.928 31.232C127.633 30.712 127.486 30.0534 127.486 29.256C127.486 28.164 127.789 27.306 128.396 26.682C129.003 26.0407 129.852 25.5814 130.944 25.304C132.053 25.0267 133.345 24.8534 134.818 24.784C136.309 24.6974 137.929 24.654 139.68 24.654V24.16C139.68 23.588 139.541 23.1374 139.264 22.808C138.987 22.4787 138.562 22.2447 137.99 22.106C137.435 21.95 136.707 21.872 135.806 21.872C135.13 21.872 134.506 21.924 133.934 22.028C133.379 22.1147 132.937 22.262 132.608 22.47C132.279 22.6607 132.114 22.912 132.114 23.224V23.484H128.032C128.015 23.4147 127.997 23.354 127.98 23.302C127.98 23.2327 127.98 23.1547 127.98 23.068C127.98 22.2534 128.283 21.5427 128.89 20.936C129.497 20.312 130.398 19.8354 131.594 19.506C132.807 19.1594 134.307 18.986 136.092 18.986C137.756 18.986 139.151 19.1334 140.278 19.428C141.422 19.7227 142.289 20.208 142.878 20.884C143.467 21.56 143.762 22.4614 143.762 23.588V29.334C143.762 29.646 143.823 29.8974 143.944 30.088C144.083 30.2614 144.308 30.348 144.62 30.348H145.972V32.844C145.764 32.9307 145.417 33.026 144.932 33.13C144.447 33.2514 143.909 33.312 143.32 33.312C142.523 33.312 141.89 33.2167 141.422 33.026C140.971 32.8527 140.642 32.61 140.434 32.298C140.226 31.9687 140.079 31.6134 139.992 31.232H139.784C139.299 31.6654 138.718 32.038 138.042 32.35C137.383 32.662 136.664 32.896 135.884 33.052C135.104 33.2254 134.272 33.312 133.388 33.312ZM134.454 30.426C134.939 30.426 135.477 30.374 136.066 30.27C136.673 30.1487 137.253 29.984 137.808 29.776C138.363 29.5507 138.813 29.2734 139.16 28.944C139.507 28.6147 139.68 28.216 139.68 27.748V27.02C137.825 27.02 136.3 27.0894 135.104 27.228C133.908 27.3667 133.015 27.5834 132.426 27.878C131.837 28.1727 131.542 28.5887 131.542 29.126C131.542 29.49 131.681 29.7674 131.958 29.958C132.253 30.1314 132.625 30.2527 133.076 30.322C133.527 30.3914 133.986 30.426 134.454 30.426Z" fill="white"/>
<path d="M147.243 33V19.298H150.519L150.805 21.664H151.013C151.239 21.1614 151.542 20.7107 151.923 20.312C152.322 19.896 152.79 19.5754 153.327 19.35C153.865 19.1074 154.471 18.986 155.147 18.986C155.459 18.986 155.771 19.012 156.083 19.064C156.395 19.0987 156.682 19.1594 156.941 19.246V22.652H154.939C154.281 22.652 153.717 22.7647 153.249 22.99C152.799 23.198 152.426 23.4927 152.131 23.874C151.854 24.238 151.646 24.654 151.507 25.122C151.369 25.5727 151.299 26.0494 151.299 26.552V33H147.243Z" fill="white"/>
<path d="M166.443 33.312C164.623 33.312 163.054 33.0607 161.737 32.558C160.419 32.038 159.397 31.2494 158.669 30.192C157.958 29.1347 157.603 27.7914 157.603 26.162C157.603 24.5674 157.949 23.2414 158.643 22.184C159.353 21.1094 160.359 20.312 161.659 19.792C162.976 19.2547 164.519 18.986 166.287 18.986C168.141 18.986 169.71 19.246 170.993 19.766C172.275 20.286 173.246 21.0574 173.905 22.08C174.563 23.1027 174.893 24.368 174.893 25.876V27.072H161.867C161.919 27.8694 162.135 28.5194 162.517 29.022C162.898 29.5074 163.427 29.8627 164.103 30.088C164.796 30.3134 165.602 30.426 166.521 30.426C166.937 30.426 167.37 30.3827 167.821 30.296C168.289 30.192 168.722 30.0534 169.121 29.88C169.537 29.7067 169.883 29.49 170.161 29.23C170.438 28.9527 170.594 28.6234 170.629 28.242H174.789C174.789 28.97 174.598 29.646 174.217 30.27C173.835 30.894 173.281 31.4314 172.553 31.882C171.825 32.3327 170.941 32.688 169.901 32.948C168.878 33.1907 167.725 33.312 166.443 33.312ZM161.893 24.602H170.551C170.551 24.1514 170.447 23.7614 170.239 23.432C170.031 23.0854 169.727 22.7994 169.329 22.574C168.947 22.3314 168.505 22.158 168.003 22.054C167.5 21.9327 166.954 21.872 166.365 21.872C165.515 21.872 164.761 21.9847 164.103 22.21C163.461 22.418 162.95 22.73 162.569 23.146C162.205 23.5447 161.979 24.03 161.893 24.602Z" fill="white"/>
</g>
</svg>
