<svg width="97" height="48" viewBox="0 0 97 48" fill="none" xmlns="http://www.w3.org/2000/svg">
<g opacity="0.84">
<path d="M0 24.2C0 22.4666 0.375 20.925 1.125 19.575C1.875 18.2083 2.91667 17.15 4.25 16.4C5.6 15.6333 7.125 15.25 8.825 15.25C10.9083 15.25 12.6917 15.8 14.175 16.9C15.6583 18 16.65 19.5 17.15 21.4H12.45C12.1 20.6666 11.6 20.1083 10.95 19.725C10.3167 19.3416 9.59167 19.15 8.775 19.15C7.45833 19.15 6.39167 19.6083 5.575 20.525C4.75833 21.4416 4.35 22.6666 4.35 24.2C4.35 25.7333 4.75833 26.9583 5.575 27.875C6.39167 28.7916 7.45833 29.25 8.775 29.25C9.59167 29.25 10.3167 29.0583 10.95 28.675C11.6 28.2916 12.1 27.7333 12.45 27H17.15C16.65 28.9 15.6583 30.4 14.175 31.5C12.6917 32.5833 10.9083 33.125 8.825 33.125C7.125 33.125 5.6 32.75 4.25 32C2.91667 31.2333 1.875 30.175 1.125 28.825C0.375 27.475 0 25.9333 0 24.2Z" fill="white"/>
<path d="M33.043 19.05V33H28.768V31.1C28.3346 31.7166 27.743 32.2166 26.993 32.6C26.2596 32.9666 25.443 33.15 24.543 33.15C23.4763 33.15 22.5346 32.9166 21.718 32.45C20.9013 31.9666 20.268 31.275 19.818 30.375C19.368 29.475 19.143 28.4166 19.143 27.2V19.05H23.393V26.625C23.393 27.5583 23.6346 28.2833 24.118 28.8C24.6013 29.3166 25.2513 29.575 26.068 29.575C26.9013 29.575 27.5596 29.3166 28.043 28.8C28.5263 28.2833 28.768 27.5583 28.768 26.625V19.05H33.043Z" fill="white"/>
<path d="M39.8887 21.025C40.2887 20.375 40.8637 19.85 41.6137 19.45C42.3637 19.05 43.222 18.85 44.1887 18.85C45.3387 18.85 46.3803 19.1416 47.3137 19.725C48.247 20.3083 48.9803 21.1416 49.5137 22.225C50.0637 23.3083 50.3387 24.5666 50.3387 26C50.3387 27.4333 50.0637 28.7 49.5137 29.8C48.9803 30.8833 48.247 31.725 47.3137 32.325C46.3803 32.9083 45.3387 33.2 44.1887 33.2C43.2053 33.2 42.347 33.0083 41.6137 32.625C40.8803 32.225 40.3053 31.7 39.8887 31.05V33H35.6137V14.5H39.8887V21.025ZM45.9887 26C45.9887 24.9333 45.6887 24.1 45.0887 23.5C44.5053 22.8833 43.7803 22.575 42.9137 22.575C42.0637 22.575 41.3387 22.8833 40.7387 23.5C40.1553 24.1166 39.8637 24.9583 39.8637 26.025C39.8637 27.0916 40.1553 27.9333 40.7387 28.55C41.3387 29.1666 42.0637 29.475 42.9137 29.475C43.7637 29.475 44.4887 29.1666 45.0887 28.55C45.6887 27.9166 45.9887 27.0666 45.9887 26Z" fill="white"/>
<path d="M65.2314 25.8C65.2314 26.2 65.2065 26.6166 65.1564 27.05H55.4814C55.5481 27.9166 55.8231 28.5833 56.3064 29.05C56.8064 29.5 57.4148 29.725 58.1314 29.725C59.1981 29.725 59.9398 29.275 60.3564 28.375H64.9064C64.6731 29.2916 64.2481 30.1166 63.6314 30.85C63.0314 31.5833 62.2731 32.1583 61.3564 32.575C60.4398 32.9916 59.4148 33.2 58.2814 33.2C56.9148 33.2 55.6981 32.9083 54.6314 32.325C53.5648 31.7416 52.7314 30.9083 52.1314 29.825C51.5314 28.7416 51.2314 27.475 51.2314 26.025C51.2314 24.575 51.5231 23.3083 52.1064 22.225C52.7064 21.1416 53.5398 20.3083 54.6064 19.725C55.6731 19.1416 56.8981 18.85 58.2814 18.85C59.6314 18.85 60.8314 19.1333 61.8814 19.7C62.9314 20.2666 63.7481 21.075 64.3314 22.125C64.9314 23.175 65.2314 24.4 65.2314 25.8ZM60.8564 24.675C60.8564 23.9416 60.6064 23.3583 60.1064 22.925C59.6064 22.4916 58.9814 22.275 58.2314 22.275C57.5148 22.275 56.9064 22.4833 56.4064 22.9C55.9231 23.3166 55.6231 23.9083 55.5064 24.675H60.8564Z" fill="white"/>
<path d="M75.5117 33L71.2617 27.15V33H66.9867V14.5H71.2617V24.725L75.4867 19.05H80.7617L74.9617 26.05L80.8117 33H75.5117Z" fill="white"/>
<path d="M84.0908 17.6C83.3408 17.6 82.7242 17.3833 82.2408 16.95C81.7742 16.5 81.5408 15.95 81.5408 15.3C81.5408 14.6333 81.7742 14.0833 82.2408 13.65C82.7242 13.2 83.3408 12.975 84.0908 12.975C84.8242 12.975 85.4242 13.2 85.8908 13.65C86.3742 14.0833 86.6158 14.6333 86.6158 15.3C86.6158 15.95 86.3742 16.5 85.8908 16.95C85.4242 17.3833 84.8242 17.6 84.0908 17.6ZM86.2158 19.05V33H81.9408V19.05H86.2158Z" fill="white"/>
<path d="M96.5889 29.375V33H94.4139C92.8639 33 91.6555 32.625 90.7889 31.875C89.9222 31.1083 89.4889 29.8666 89.4889 28.15V22.6H87.7889V19.05H89.4889V15.65H93.7639V19.05H96.5639V22.6H93.7639V28.2C93.7639 28.6166 93.8639 28.9166 94.0639 29.1C94.2639 29.2833 94.5972 29.375 95.0639 29.375H96.5889Z" fill="white"/>
</g>
</svg>
