<svg width="122" height="48" viewBox="0 0 122 48" fill="none" xmlns="http://www.w3.org/2000/svg">
<g opacity="0.84">
<path d="M0 33V13.317H14.256V17.07H4.428V21.849H13.176V25.413H4.428V33H0Z" fill="white"/>
<path d="M21.9529 33.27C19.5949 33.27 17.8399 32.595 16.6879 31.245C15.5359 29.895 14.9599 28.095 14.9599 25.845V25.764C14.9599 23.208 15.5989 21.318 16.8769 20.094C18.1549 18.852 19.8469 18.231 21.9529 18.231C24.0769 18.231 25.7779 18.852 27.0559 20.094C28.3519 21.318 28.9999 23.208 28.9999 25.764V25.845C28.9819 28.095 28.3969 29.895 27.2449 31.245C26.0929 32.595 24.3289 33.27 21.9529 33.27ZM21.9529 29.922C22.8709 29.922 23.5639 29.67 24.0319 29.166C24.5179 28.662 24.7609 27.969 24.7609 27.087V24.495C24.7609 23.595 24.5089 22.893 24.0049 22.389C23.5189 21.867 22.8349 21.606 21.9529 21.606C21.0889 21.606 20.4049 21.867 19.9009 22.389C19.4149 22.893 19.1719 23.595 19.1719 24.495V27.087C19.1719 27.969 19.4059 28.662 19.8739 29.166C20.3599 29.67 21.0529 29.922 21.9529 29.922Z" fill="white"/>
<path d="M31.2643 33V21.714C31.2643 20.724 31.5613 19.941 32.1553 19.365C32.7493 18.789 33.5233 18.501 34.4773 18.501H40.3903V21.849H35.4223V33H31.2643Z" fill="white"/>
<path d="M48.5365 33.27C46.9345 33.27 45.5935 32.964 44.5135 32.352C43.4515 31.722 42.6595 30.849 42.1375 29.733C41.6155 28.599 41.3545 27.285 41.3545 25.791V25.548C41.3545 23.982 41.6425 22.659 42.2185 21.579C42.7945 20.481 43.5955 19.653 44.6215 19.095C45.6655 18.519 46.8625 18.231 48.2125 18.231C49.6885 18.231 50.9395 18.51 51.9655 19.068C53.0095 19.626 53.8015 20.409 54.3415 21.417C54.8815 22.425 55.1515 23.604 55.1515 24.954V26.79H45.5665V27.546C45.5665 28.32 45.8275 28.941 46.3495 29.409C46.8895 29.877 47.5735 30.111 48.4015 30.111C49.1395 30.111 49.7425 29.949 50.2105 29.625C50.6965 29.301 50.9845 28.869 51.0745 28.329H54.9895C54.9355 29.319 54.6295 30.183 54.0715 30.921C53.5135 31.659 52.7575 32.235 51.8035 32.649C50.8495 33.063 49.7605 33.27 48.5365 33.27ZM45.5665 24.09V24.225H51.0745V24.09C51.0745 23.118 50.8225 22.416 50.3185 21.984C49.8145 21.534 49.1575 21.309 48.3475 21.309C47.4835 21.309 46.7995 21.552 46.2955 22.038C45.8095 22.506 45.5665 23.19 45.5665 24.09Z" fill="white"/>
<path d="M62.7406 33.27C60.6706 33.27 59.0866 32.82 57.9886 31.92C56.9086 31.02 56.3776 29.85 56.3956 28.41H60.3646C60.4006 29.13 60.6436 29.643 61.0936 29.949C61.5616 30.255 62.1556 30.408 62.8756 30.408C63.5956 30.408 64.1086 30.273 64.4146 30.003C64.7386 29.715 64.9006 29.373 64.9006 28.977C64.9006 28.347 64.6756 27.933 64.2256 27.735C63.7756 27.519 63.0736 27.339 62.1196 27.195C61.2556 27.069 60.4096 26.871 59.5816 26.601C58.7536 26.331 58.0696 25.908 57.5296 25.332C57.0076 24.738 56.7466 23.928 56.7466 22.902C56.7466 21.894 56.9986 21.048 57.5026 20.364C58.0246 19.662 58.7356 19.131 59.6356 18.771C60.5356 18.411 61.5706 18.231 62.7406 18.231C64.5226 18.231 65.9626 18.627 67.0606 19.419C68.1766 20.211 68.7526 21.327 68.7886 22.767L64.8736 22.74C64.8736 22.182 64.6756 21.759 64.2796 21.471C63.9016 21.165 63.3886 21.012 62.7406 21.012C62.1106 21.012 61.6336 21.138 61.3096 21.39C60.9856 21.642 60.8236 21.975 60.8236 22.389C60.8236 22.965 61.0846 23.343 61.6066 23.523C62.1466 23.703 62.8216 23.856 63.6316 23.982C64.3156 24.072 64.9816 24.198 65.6296 24.36C66.2776 24.504 66.8626 24.738 67.3846 25.062C67.9246 25.386 68.3476 25.836 68.6536 26.412C68.9596 26.97 69.1126 27.708 69.1126 28.626C69.1126 30.048 68.5546 31.182 67.4386 32.028C66.3406 32.856 64.7746 33.27 62.7406 33.27Z" fill="white"/>
<path d="M71.5154 33V18.501H75.6734V33H71.5154ZM71.5154 16.665V13.317H75.6734V16.665H71.5154Z" fill="white"/>
<path d="M84.6359 37.779C82.7459 37.779 81.2519 37.374 80.1539 36.564C79.0739 35.772 78.4889 34.719 78.3989 33.405H82.3949C82.4849 33.873 82.7549 34.233 83.2049 34.485C83.6729 34.755 84.2579 34.89 84.9599 34.89C86.0399 34.89 86.8049 34.647 87.2549 34.161C87.7229 33.675 87.9569 32.991 87.9569 32.109V29.598H87.7679C87.4079 30.408 86.8409 31.029 86.0669 31.461C85.2929 31.875 84.4289 32.082 83.4749 32.082C81.6209 32.082 80.2349 31.461 79.3169 30.219C78.4169 28.977 77.9669 27.321 77.9669 25.251V25.143C77.9669 22.857 78.4529 21.138 79.4249 19.986C80.3969 18.816 81.7559 18.231 83.5019 18.231C84.6359 18.231 85.5449 18.447 86.2289 18.879C86.9129 19.311 87.4259 19.869 87.7679 20.553H87.9839L88.1999 18.501H92.1149V31.623C92.1149 33.747 91.4759 35.304 90.1979 36.294C88.9379 37.284 87.0839 37.779 84.6359 37.779ZM85.1759 28.788C86.0579 28.788 86.7419 28.527 87.2279 28.005C87.7139 27.465 87.9569 26.772 87.9569 25.926V24.414C87.9569 23.514 87.7049 22.812 87.2009 22.308C86.6969 21.786 86.0219 21.525 85.1759 21.525C84.2939 21.525 83.6099 21.777 83.1239 22.281C82.6559 22.785 82.4219 23.478 82.4219 24.36V26.034C82.4219 26.898 82.6739 27.573 83.1779 28.059C83.6819 28.545 84.3479 28.788 85.1759 28.788Z" fill="white"/>
<path d="M95.2733 33V13.317H99.4313V20.877H99.6743C99.9803 20.085 100.511 19.446 101.267 18.96C102.023 18.474 102.923 18.231 103.967 18.231C105.515 18.231 106.739 18.699 107.639 19.635C108.539 20.571 108.989 22.065 108.989 24.117V33H104.858V24.63C104.858 23.46 104.624 22.659 104.156 22.227C103.688 21.795 103.058 21.579 102.266 21.579C101.33 21.579 100.619 21.885 100.133 22.497C99.6653 23.109 99.4313 23.928 99.4313 24.954V33H95.2733Z" fill="white"/>
<path d="M117.027 33C115.875 33 115.047 32.703 114.543 32.109C114.057 31.515 113.814 30.741 113.814 29.787V21.849H110.682V18.501H113.814V13.965H117.972V18.501H121.536V21.849H117.972V29.76H121.374V33H117.027Z" fill="white"/>
</g>
</svg>
